<?xml version="1.0" standalone="no"?>
<!DOCTYPE svg PUBLIC "-//W3C//DTD SVG 20010904//EN"
 "http://www.w3.org/TR/2001/REC-SVG-20010904/DTD/svg10.dtd">
<svg version="1.0" xmlns="http://www.w3.org/2000/svg"
 width="180.000000pt" height="180.000000pt" viewBox="0 0 180.000000 180.000000"
 preserveAspectRatio="xMidYMid meet">
<metadata>
Created by potrace 1.14, written by Peter Selinger 2001-2017
</metadata>
<g transform="translate(0.000000,180.000000) scale(0.100000,-0.100000)"
fill="#000000" stroke="none">
<path d="M930 1604 c-88 -19 -148 -42 -188 -71 -27 -20 -31 -27 -21 -39 15
-18 14 -19 -45 -33 -78 -19 -117 -38 -110 -54 3 -9 16 -13 32 -11 15 2 54 6
87 9 33 3 78 7 100 10 97 10 259 14 225 5 -35 -9 -87 -19 -125 -25 -11 -1 -20
-3 -20 -4 0 -1 -14 -4 -31 -6 -62 -9 -338 -67 -404 -86 -25 -7 -47 -13 -50
-13 -24 -4 -70 -31 -70 -41 0 -15 25 -27 35 -17 3 3 16 7 28 8 47 3 129 18
183 33 21 6 40 8 42 6 3 -2 14 1 25 6 11 6 52 13 91 14 66 3 104 7 166 19 47
10 115 18 166 21 28 1 58 6 65 11 12 7 12 5 0 -9 -7 -9 -17 -15 -21 -12 -4 2
-22 0 -41 -5 -44 -12 -99 -23 -121 -24 -10 0 -18 -3 -18 -7 0 -3 -10 -6 -22
-6 -13 1 -66 -7 -118 -17 -52 -9 -104 -19 -115 -21 -11 -2 -20 -4 -20 -5 0 -1
-11 -3 -25 -4 -34 -4 -87 -15 -133 -27 -31 -8 -36 -13 -27 -24 13 -16 3 -24
-37 -31 -28 -5 -45 -22 -37 -35 5 -8 -2 -9 154 25 63 14 129 28 145 31 67 11
92 16 125 25 56 16 59 11 6 -10 -40 -16 -103 -32 -171 -44 -38 -7 -85 -30 -82
-39 5 -14 38 -14 122 -2 57 9 104 10 177 7 31 -2 31 -3 13 -16 -11 -7 -24 -14
-28 -14 -16 -2 -73 -83 -76 -110 -3 -15 -4 -107 -4 -205 1 -167 8 -215 30
-194 3 4 7 94 7 200 1 105 3 198 6 206 11 33 56 71 118 101 82 40 77 36 63 54
-7 9 -24 13 -42 11 -16 -2 -29 -2 -29 0 0 4 55 20 102 31 10 2 26 6 36 8 9 2
31 11 47 20 17 9 40 16 53 16 16 0 22 6 22 21 0 17 -5 19 -30 15 -16 -2 -32 0
-36 5 -3 5 6 9 19 9 25 0 52 22 41 33 -6 6 74 32 89 29 12 -3 8 36 -5 40 -7 3
-50 4 -96 4 -45 -1 -82 2 -82 5 0 9 27 31 53 44 12 6 23 19 25 29 4 18 -3 19
-134 12 -77 -3 -159 -8 -184 -10 l-45 -5 45 15 c25 9 52 18 60 21 8 3 20 7 25
9 67 16 258 74 263 79 14 14 -25 25 -68 20 -25 -3 -54 -7 -65 -8 -11 -1 -20 4
-20 13 0 20 -18 21 -95 4z m47 -40 c-3 -3 -12 -4 -19 -1 -8 3 -5 6 6 6 11 1
17 -2 13 -5z m113 -314 c0 -4 -7 -7 -15 -6 -23 3 -26 12 -5 13 11 1 20 -2 20
-7z m-50 -4 c0 -3 -4 -8 -10 -11 -5 -3 -10 -1 -10 4 0 6 5 11 10 11 6 0 10 -2
10 -4z m-153 -32 c-3 -3 -12 -4 -19 -1 -8 3 -5 6 6 6 11 1 17 -2 13 -5z"/>
<path d="M276 462 c-9 -2 -16 -11 -16 -20 0 -10 3 -13 8 -7 7 11 48 12 59 1 3
-3 7 -43 8 -88 3 -100 3 -101 13 -94 5 3 8 44 8 90 -1 67 2 87 14 92 26 12 40
13 40 3 0 -6 5 -7 11 -3 22 13 -9 25 -68 27 -33 1 -68 1 -77 -1z"/>
<path d="M786 436 c3 -16 0 -26 -7 -26 -8 0 -8 -4 1 -15 10 -12 10 -15 -1 -15
-9 0 -10 -3 -4 -8 6 -4 10 -32 10 -62 1 -70 20 -73 20 -2 1 67 21 92 62 73 21
-10 24 -14 12 -22 -7 -5 -9 -9 -4 -9 6 0 10 -17 9 -37 -1 -43 5 -65 15 -58 6
3 8 107 2 137 -2 13 -62 20 -76 8 -12 -10 -15 -9 -16 9 -3 40 -4 44 -16 48 -8
3 -10 -4 -7 -21z"/>
<path d="M1299 443 c-6 -107 -3 -172 8 -182 14 -13 14 -12 15 99 0 87 -1 100
-12 100 -5 0 -10 -8 -11 -17z"/>
<path d="M1090 430 c0 -11 -4 -20 -10 -20 -5 0 -10 -7 -10 -15 0 -8 4 -15 10
-15 5 0 10 -25 12 -56 2 -40 8 -60 20 -68 22 -13 38 2 18 17 -19 15 -21 98 -2
110 15 10 16 28 0 25 -7 -2 -13 3 -14 10 -1 6 -2 17 -3 22 -2 19 -21 10 -21
-10z"/>
<path d="M410 329 c0 -89 16 -101 24 -17 4 53 11 68 31 68 7 0 15 6 18 14 6
15 -9 16 -31 2 -7 -4 -19 -2 -27 4 -13 11 -15 1 -15 -71z"/>
<path d="M515 400 c-11 -5 -17 -9 -12 -9 4 -1 1 -11 -6 -23 -8 -13 -13 -29
-12 -35 2 -7 3 -19 4 -26 2 -23 41 -57 65 -57 32 0 67 32 55 51 -5 8 -9 9 -9
2 0 -11 -30 -26 -55 -28 -13 -1 -39 34 -31 42 4 4 33 7 65 8 42 2 58 -1 55
-10 -8 -21 35 -65 65 -65 34 0 81 44 57 53 -9 4 -16 2 -16 -4 0 -5 -12 -15
-26 -21 -23 -11 -29 -10 -45 11 -11 13 -18 26 -15 28 2 2 27 6 55 7 28 2 54 6
57 9 4 3 -2 21 -13 39 -24 42 -65 49 -99 17 -13 -12 -21 -25 -19 -30 3 -4 1
-10 -5 -14 -5 -3 -10 0 -10 8 0 22 -39 57 -63 56 -12 0 -31 -4 -42 -9z m75
-30 c6 -11 9 -20 8 -21 -12 -4 -88 -7 -88 -4 0 3 6 14 12 25 16 26 54 26 68 0z
m140 1 c12 -23 5 -29 -35 -26 -50 4 -51 5 -26 25 29 25 47 25 61 1z"/>
<path d="M950 393 c-20 -14 -26 -26 -25 -56 1 -69 61 -109 108 -73 20 15 41
77 29 85 -4 4 -9 15 -10 26 -5 26 -4 25 -43 31 -23 3 -42 -1 -59 -13z m73 -17
c18 -14 21 -35 11 -74 -8 -27 -48 -40 -67 -20 -18 18 -31 68 -17 68 6 0 9 4 5
9 -5 10 22 30 40 30 6 0 18 -6 28 -13z"/>
<path d="M1169 394 c-7 -9 -14 -24 -16 -35 -1 -10 -3 -22 -4 -26 -6 -38 29
-83 66 -83 25 0 68 37 59 51 -6 11 -34 0 -31 -13 4 -19 -40 -18 -58 2 -24 26
-13 38 32 34 48 -5 67 7 58 35 -15 49 -77 69 -106 35z m69 -17 c26 -17 13 -36
-23 -33 -43 3 -50 9 -31 29 16 16 32 17 54 4z"/>
</g>
</svg>
